<svg width="333" height="393" viewBox="0 0 333 393" fill="none" xmlns="http://www.w3.org/2000/svg">
<path d="M192.365 189.151C165.9 204.871 133.616 186.349 135.133 186.027C185.163 175.176 189.584 143.693 189.584 143.693C179.596 119.35 152.37 127.187 152.37 127.187C151.582 161.732 110.362 163.677 110.362 163.677C107.714 152.469 107.86 126.299 107.86 126.299C95.3664 117.586 92.8369 121.284 92.8369 121.284C96.7769 86.7 112.643 75.5506 112.643 75.5506C115.287 73.0943 127.103 67.5727 133.171 66.8574L133.387 67.8163C133.387 67.8163 127.253 83.0962 139.01 84.1023C148.903 84.9669 154.525 72.8192 156.058 68.9639C168.922 72.9411 181.199 81.8425 189.367 96.8158C208.689 132.241 192.365 189.151 192.365 189.151Z" fill="#2E2E2E"/>
<path d="M195.226 174.244L259.531 216.688C272.001 224.918 270.397 243.648 256.721 249.649L181.467 282.685C174.469 285.756 166.795 286.979 159.186 286.237C151.576 285.494 144.286 282.81 138.017 278.444L109.117 258.291" stroke="black" stroke-width="4.21" stroke-miterlimit="10"/>
<path d="M195.227 187.932L193.064 186.502L259.543 230.369C272.013 238.598 270.41 257.328 256.734 263.33L181.48 296.365C174.481 299.436 166.808 300.66 159.198 299.917C151.588 299.174 144.299 296.491 138.03 292.125L101.285 266.022" stroke="black" stroke-width="4.21" stroke-miterlimit="10"/>
<path d="M251.186 247.307L182.019 277.674C175.587 280.496 168.535 281.62 161.542 280.937C154.548 280.254 147.849 277.788 142.087 273.776L115.583 255.203C119.232 252.413 123.321 250.248 127.683 248.797C138.608 245.095 149.27 240.661 159.597 235.525C167.435 231.657 174.321 226.11 179.761 219.281C185.202 212.451 189.063 204.507 191.069 196.017C192.456 190.141 193.674 184.199 194.671 178.226L255.544 218.363C267.001 225.924 263.751 241.797 251.186 247.307Z" fill="#3FBDF1"/>
<path d="M72.9606 335.316C72.9606 335.316 85.0879 330.301 87.4125 326.521C87.4125 326.521 87.8499 335.104 85.5804 338.035C83.311 340.967 69.7495 348.717 69.0206 347.746C68.2917 346.776 72.9606 335.316 72.9606 335.316Z" fill="#3FBDF1"/>
<path d="M35.6297 355.767C35.6297 355.767 37.8361 358.754 45.6649 355.767C53.4936 352.78 70.5263 341.78 70.5263 341.78C70.5263 341.78 65.7746 354.506 64.0528 355.905C62.3311 357.304 29.8024 373.197 29.8024 373.197C29.8024 373.197 15.2599 375.26 20.7404 364.944L35.6297 355.767Z" fill="#3FBDF1"/>
<path d="M82.4443 189.497C64.5173 196.457 45.5462 212.81 51.0031 258.095L52.52 269.862" stroke="black" stroke-width="4.21" stroke-miterlimit="10"/>
<path d="M82.416 159.923C85.3474 155.749 87.9951 151.238 89.6183 146.38C91.2416 141.523 91.3244 136.261 91.7775 131.152C92.9831 117.452 94.8507 106.121 100.15 93.3607C104.74 82.3174 118.605 68.0908 132.399 66.7428L133.64 66.6367" stroke="black" stroke-width="4.21" stroke-miterlimit="10"/>
<path d="M117.088 188.495C117.021 188.302 116.954 188.121 116.883 187.933" stroke="black" stroke-width="4.21" stroke-miterlimit="10"/>
<path d="M110.362 162.828C109.684 158.854 109.18 155.003 108.786 151.348C108.787 151.279 108.779 151.211 108.762 151.144C106.698 130.735 108.786 115.888 108.786 115.888" stroke="black" stroke-width="4.21" stroke-miterlimit="10"/>
<path d="M158.553 38.9615L155.401 40.1879C155.401 40.2861 155.401 41.5123 155.267 43.2297C155.12 45.2807 154.793 47.3153 154.29 49.3094C154.569 47.9496 154.975 44.7192 153.194 42.4712C153.167 42.4252 153.135 42.3816 153.1 42.3415C151.918 40.9228 150.46 41.4848 149.29 42.4594C148.482 43.1413 147.776 43.9355 147.194 44.8174C147.398 42.1918 146.926 39.5579 145.822 37.1655C145.103 35.5335 144.148 34.015 142.99 32.6578C144.774 38.7886 142.485 42.8013 142.485 42.8013C136.437 44.22 132.241 43.9174 129.113 43.379C126.477 40.9267 127.391 32.0958 127.391 32.0958C124.74 34.2573 125.378 42.6205 125.378 42.6205C125.039 40.4382 125.08 38.2138 125.5 36.0455C124.183 37.9034 123.422 40.0963 123.305 42.369L123.258 42.3454C123.075 42.2987 122.895 42.2421 122.718 42.1764C122.394 42.0059 122.079 41.8172 121.777 41.6105L120.031 40.4315C122.667 27.0183 131.883 18.5845 146.122 21.0604C147.051 21.2202 147.966 21.4568 148.856 21.7678C158.237 26.6449 158.553 38.9615 158.553 38.9615Z" fill="#3FBDF1"/>
<path d="M77.2942 169.596L73.7049 158.82C73.6257 158.569 73.4834 158.342 73.2916 158.161C73.1001 157.981 72.8653 157.851 72.6095 157.786C72.578 157.786 72.5426 157.786 72.5071 157.762C72.4717 157.739 72.4638 157.762 72.4401 157.762C72.3578 157.757 72.2746 157.757 72.1919 157.762C71.794 157.764 71.411 157.915 71.1202 158.187C70.8291 158.455 70.5962 158.781 70.437 159.144C70.2775 159.506 70.1951 159.898 70.1943 160.293C70.1947 160.603 70.244 160.911 70.3401 161.205C71.1281 163.481 72.5308 167.587 73.1966 169.458" fill="#3FBDF1"/>
<path d="M76.4822 169.595L72.6131 157.785C72.5816 157.785 72.5462 157.785 72.5107 157.762C72.4752 157.738 72.4674 157.762 72.4437 157.762L70.4146 157.369C69.3311 157.168 68.2476 156.952 67.1641 156.752C65.8639 156.492 64.5558 156.276 63.2596 155.966C62.9534 155.879 62.639 155.827 62.3219 155.809C61.9223 155.807 61.5382 155.961 61.2502 156.237C60.9563 156.505 60.7218 156.832 60.5623 157.196C60.4027 157.56 60.3219 157.954 60.3243 158.351C60.3223 158.657 60.3716 158.962 60.4701 159.251C61.3408 161.798 62.9995 166.616 63.5275 168.078L76.4822 169.595Z" fill="#3FBDF1"/>
<path d="M152.981 115.884C152.587 120.258 152.382 125.551 152.244 132.205C152.244 146.353 136.564 158.068 122.628 160.748L97.073 166.506C93.6964 167.158 90.7055 165.056 88.3573 163.661C85.9421 162.226 83.4678 160.517 81.7263 159.247C79.2204 157.42 74.3939 158.89 75.3829 163.248C75.596 164.077 75.9983 164.845 76.5582 165.494C77.1177 166.142 77.8198 166.652 78.6097 166.985C79.055 167.185 79.5128 167.352 79.9813 167.488C80.1554 167.532 80.3106 167.632 80.4221 167.773C80.5336 167.913 80.5959 168.086 80.5983 168.265C80.601 168.445 80.5443 168.62 80.4371 168.764C80.3295 168.907 80.1775 169.012 80.0049 169.06C77.7906 169.823 73.736 170.275 67.1956 167.881C58.8152 164.804 58.1655 183.88 69.623 187.201H69.6663C80.2216 190.385 91.5806 189.976 102.49 189.52C114.879 189.052 127.207 187.552 139.345 185.036C145.519 183.731 151.862 182.375 157.512 179.589C167.244 174.79 174.258 169.288 180.928 160.725C188.414 151.124 191.609 138.528 193.413 126.719C195.478 113.207 192.625 101.798 185.364 90.1696L185.096 89.7451" stroke="black" stroke-width="4.21" stroke-miterlimit="10"/>
<path d="M77.2942 169.596L73.7049 158.82C73.6257 158.569 73.4834 158.342 73.2916 158.161C73.1001 157.981 72.8653 157.851 72.6095 157.786C72.578 157.786 72.5426 157.786 72.5071 157.762C72.4717 157.739 72.4638 157.762 72.4401 157.762C72.3578 157.757 72.2746 157.757 72.1919 157.762C71.794 157.764 71.411 157.915 71.1202 158.187C70.8291 158.455 70.5962 158.781 70.437 159.144C70.2775 159.506 70.1951 159.898 70.1943 160.293C70.1947 160.603 70.244 160.911 70.3401 161.205C71.1281 163.481 72.5308 167.587 73.1966 169.458" stroke="black" stroke-width="4.21" stroke-miterlimit="10"/>
<path d="M72.6131 157.785C72.5816 157.785 72.5462 157.785 72.5107 157.762C72.4752 157.738 72.4674 157.762 72.4437 157.762L70.4146 157.369C69.3311 157.168 68.2476 156.952 67.1641 156.752C65.8639 156.492 64.5558 156.276 63.2596 155.966C62.9534 155.879 62.639 155.827 62.3219 155.809C61.9223 155.807 61.5382 155.961 61.2502 156.237C60.9563 156.505 60.7218 156.832 60.5623 157.196C60.4027 157.56 60.3219 157.954 60.3243 158.351C60.3223 158.657 60.3716 158.962 60.4701 159.251C61.3408 161.798 62.9995 166.616 63.5275 168.078" stroke="black" stroke-width="4.21" stroke-miterlimit="10"/>
<path d="M122.081 41.9844C122.081 47.0934 123.078 51.9784 125.536 56.49C127.506 60.1135 130.398 63.7644 134.535 64.9631C135.452 65.2268 136.402 65.3592 137.356 65.3561C144.378 65.3246 145.473 57.0284 145.473 57.0284" stroke="black" stroke-width="4.21" stroke-miterlimit="10"/>
<path d="M155.03 44.9473V44.9708C154.705 47.5057 154.145 50.0056 153.36 52.4378C152.421 55.3394 152.199 58.4244 152.713 61.4297L153.805 67.7609C153.854 68.0431 153.983 68.3056 154.175 68.5182C154.367 68.7308 154.616 68.8853 154.892 68.9635C168.745 72.976 181.042 81.8303 188.197 94.6146C197.121 110.578 198.748 129.804 198.027 147.725C197.393 163.26 194.875 178.705 191.302 193.824C189.117 203.064 184.914 211.709 178.993 219.142C173.071 226.575 165.578 232.611 157.047 236.822C145.822 242.413 134.228 247.238 122.348 251.264C116.058 253.342 110.313 256.791 105.528 261.362C100.742 265.932 97.0384 271.509 94.685 277.686L66.7662 351.735C65.7398 354.469 63.7162 356.715 61.1005 358.023L34.3479 371.428C30.9693 373.115 27.1156 373.603 23.4223 372.811C22.4645 372.605 21.5914 372.116 20.916 371.408C20.2411 370.7 19.7955 369.805 19.6371 368.841C19.4791 367.877 19.6158 366.887 20.0295 366.001C20.4432 365.115 21.1146 364.375 21.9566 363.875L35.6205 355.767L54.4104 260.221C55.7326 251.697 58.8897 243.56 63.665 236.368C68.4403 229.177 74.7203 223.103 82.0731 218.563C83.0534 217.967 84.075 217.442 85.1305 216.991L125.862 199.349" stroke="black" stroke-width="4.21" stroke-miterlimit="10"/>
<path d="M143.833 20.1377C141.655 19.62 139.401 19.5055 137.182 19.7998C137.091 19.8018 137 19.8096 136.91 19.8233" stroke="black" stroke-width="4.21" stroke-miterlimit="10"/>
<path d="M133.967 66.8691C133.967 66.8691 126.761 83.3476 139.649 84.1611C151.213 84.9 155.456 69.2271 155.456 69.2271" stroke="black" stroke-width="4.21" stroke-miterlimit="10"/>
<path d="M154.124 49.9109C154.206 49.6083 155.447 45.1399 153.076 42.326C150.704 39.5121 147.489 44.3381 147.166 44.8215C147.796 37.8931 142.969 32.6387 142.969 32.6387C144.75 38.7734 142.457 42.7819 142.457 42.7819C133.643 44.8412 128.793 43.2731 125.354 42.5972C125.015 40.416 125.058 38.193 125.48 36.0264C124.159 37.8796 123.397 40.071 123.285 42.3417H123.23C121.921 41.9947 120.679 41.4299 119.558 40.6715L117.812 39.4925C120.452 26.0835 129.664 17.6418 143.903 20.1177C158.142 22.5936 158.54 38.9267 158.54 38.9267L155.369 40.1566C155.369 40.1566 155.396 45.5486 154.124 49.9109Z" stroke="black" stroke-width="4.21" stroke-miterlimit="10"/>
<path d="M127.604 49.2119V55.7318C127.605 55.8112 127.625 55.8894 127.661 55.9597C127.697 56.0305 127.75 56.0914 127.814 56.1382C127.879 56.1849 127.953 56.2156 128.032 56.2285C128.11 56.2411 128.191 56.2352 128.266 56.2113C128.781 56.0415 129.253 55.7656 129.653 55.4017" stroke="black" stroke-width="4.21" stroke-miterlimit="10"/>
<path d="M123.695 54.1613C125.757 53.3595 126.522 50.3916 125.405 47.5321C124.287 44.6727 121.709 43.0048 119.647 43.8065C117.586 44.6082 116.82 47.5762 117.938 50.4356C119.056 53.2951 121.633 54.963 123.695 54.1613Z" stroke="black" stroke-width="4.21" stroke-miterlimit="10"/>
<path d="M136.102 56.0255C138.164 55.2238 138.929 52.2559 137.812 49.3964C136.694 46.5369 134.117 44.869 132.055 45.6708C129.993 46.4725 129.227 49.4408 130.345 52.2999C131.463 55.1594 134.04 56.8276 136.102 56.0255Z" stroke="black" stroke-width="4.21" stroke-miterlimit="10"/>
<path d="M125.87 49.5491C125.87 49.5491 127.092 48.1578 129.653 49.7888" stroke="black" stroke-width="4.21" stroke-miterlimit="10"/>
<path d="M133.389 64.5498C133.389 64.5498 134.275 67.5445 136.883 77.2516" stroke="black" stroke-width="4.21" stroke-miterlimit="10"/>
<path d="M68.0859 348.237L83.4519 339.965C84.3325 339.489 85.0831 338.805 85.6386 337.974C86.1942 337.142 86.5377 336.188 86.6394 335.194C89.1925 310.179 88.4124 294.365 88.4124 294.365" stroke="black" stroke-width="4.21" stroke-miterlimit="10"/>
<path d="M54.1394 219.954L-4.99609 178.732" stroke="black" stroke-width="4.21" stroke-miterlimit="10"/>
<path d="M50.7904 231.312L-4.99609 192.421" stroke="black" stroke-width="4.21" stroke-miterlimit="10"/>
<path d="M276.997 152.959V186.706C276.997 188.254 276.546 189.768 275.7 191.065C274.853 192.362 273.648 193.386 272.229 194.012L230.268 212.546L217.44 231.992C217.11 232.474 216.634 232.839 216.082 233.034C215.531 233.228 214.931 233.243 214.37 233.076C213.809 232.908 213.317 232.567 212.964 232.101C212.61 231.636 212.414 231.07 212.404 230.487V220.441L208.102 222.34C207.145 222.757 206.099 222.931 205.058 222.845C204.017 222.759 203.014 222.417 202.138 221.849C201.263 221.281 200.543 220.505 200.042 219.59C199.542 218.676 199.278 217.652 199.272 216.61V188.428C199.273 184.913 200.304 181.474 202.238 178.536C204.172 175.598 206.925 173.288 210.159 171.89L267.825 146.954C268.823 146.522 269.913 146.344 270.998 146.437C272.082 146.53 273.127 146.89 274.036 147.486C274.946 148.082 275.693 148.894 276.21 149.85C276.727 150.805 276.997 151.874 276.997 152.959Z" fill="#D7E8F0"/>
<path d="M225.523 197.068C227.59 193.091 227.03 188.711 224.273 187.286C221.517 185.86 217.606 187.929 215.539 191.906C213.473 195.884 214.032 200.263 216.789 201.689C219.545 203.114 223.456 201.045 225.523 197.068Z" fill="white"/>
<path d="M243.444 189.418C245.511 185.44 244.951 181.061 242.194 179.635C239.437 178.21 235.527 180.279 233.46 184.256C231.394 188.233 231.953 192.613 234.709 194.038C237.466 195.464 241.377 193.395 243.444 189.418Z" fill="white"/>
<path d="M260.762 181.156C262.829 177.178 262.27 172.798 259.513 171.373C256.756 169.948 252.846 172.017 250.779 175.994C248.712 179.971 249.271 184.351 252.028 185.777C254.785 187.202 258.695 185.133 260.762 181.156Z" fill="white"/>
</svg>
