<svg width="120" height="36" viewBox="0 0 120 36" fill="none" xmlns="http://www.w3.org/2000/svg">
<path d="M62.3361 0.55957L51.9701 10.3653H33.1992C32.779 10.6921 31.9385 11.1497 31.9385 12.0462C31.9385 12.9427 32.779 13.2603 33.1992 13.307H37.1215C41.931 13.9607 51.5499 17.2292 51.5499 25.0738C51.5499 32.9183 41.931 35.6266 37.1215 36.0001H0L9.10528 26.8948H37.1215C37.7285 26.8481 38.9426 26.4186 38.9426 25.0738C38.9426 23.729 37.7285 23.1126 37.1215 22.9726H29.4171C26.2886 22.5523 20.0316 19.7787 20.0316 12.0462C20.0316 4.31375 26.2886 1.16659 29.4171 0.55957H62.3361Z" fill="white"/>
<path d="M65.6984 0.55957L54.9121 10.2252V35.72H65.6984V0.55957Z" fill="white"/>
<path d="M95.9559 34.0397V24.7944H87.2708C85.1696 24.6543 80.9672 22.6091 80.9672 17.23C80.9672 11.8509 85.1696 9.75899 87.2708 9.38544H109.824L119.63 0H114.867H84.049C78.8193 0.7471 68.3599 5.23904 68.3599 17.23C68.3599 29.2209 78.8193 33.4327 84.049 34.0397H95.9559Z" fill="white"/>
</svg>
