<svg width="363" height="424" viewBox="0 0 363 424" fill="none" xmlns="http://www.w3.org/2000/svg">
<path d="M270.691 342.202L290.691 364.034V266.471" stroke="#CCDDE2" stroke-width="4.24" stroke-miterlimit="10"/>
<path d="M290.691 350.199L308.771 334.307" stroke="#CCDDE2" stroke-width="4.24" stroke-miterlimit="10"/>
<path d="M290.691 310.622L278.361 296.821" stroke="#CCDDE2" stroke-width="4.24" stroke-miterlimit="10"/>
<path d="M290.691 298.203L299.731 292.759" stroke="#CCDDE2" stroke-width="4.24" stroke-miterlimit="10"/>
<path d="M290.692 272.132C290.692 270.478 284.527 258.789 284.527 258.789" stroke="#CCDDE2" stroke-width="4.24" stroke-miterlimit="10"/>
<path d="M271.123 371.144L272.06 371.186L277.292 371.28C279.222 371.309 281.063 372.096 282.417 373.472C283.771 374.848 284.528 376.702 284.526 378.632V406.434" stroke="#CCDDE2" stroke-width="4.24" stroke-miterlimit="10"/>
<path d="M254.947 335.944C255.833 334.926 256.783 333.861 257.814 332.78C292.878 295.676 255.694 312.878 259.76 300.446C263.826 288.014 276.448 289.651 279.187 278.398C280.972 271.067 278.734 263.177 279.259 255.719C279.62 250.69 281.693 244.355 284.945 240.455C289.109 235.468 294.413 239.093 297.165 243.791C301.829 251.783 299.739 261.57 299.709 270.338C299.709 277.122 301.77 282.969 307.26 287.107C312.183 290.826 317.932 294.184 319.98 300.408C322.206 307.192 311.182 305.416 308.053 308.146C302.397 313.09 313.989 324.483 317.199 327.748C325.255 335.939 340.871 350.762 329.919 364.246C323.046 372.692 316.279 370.847 308.799 371.148L304.771 371.097C303.681 371.077 302.596 371.276 301.583 371.681C300.57 372.086 299.648 372.689 298.871 373.455C298.094 374.221 297.478 375.135 297.059 376.143C296.64 377.15 296.427 378.232 296.431 379.323" stroke="#CCDDE2" stroke-width="4.24" stroke-miterlimit="10"/>
<path d="M225.717 354.418L241.01 371.115V296.503" stroke="#CCDDE2" stroke-width="4.24" stroke-miterlimit="10"/>
<path d="M245.318 356.753L241.01 360.535" stroke="#CCDDE2" stroke-width="4.24" stroke-miterlimit="10"/>
<path d="M241.012 330.271L231.582 319.717" stroke="#CCDDE2" stroke-width="4.24" stroke-miterlimit="10"/>
<path d="M241.01 320.773L247.921 316.609" stroke="#CCDDE2" stroke-width="4.24" stroke-miterlimit="10"/>
<path d="M241.012 300.832C241.012 299.56 236.297 290.631 236.297 290.631" stroke="#CCDDE2" stroke-width="4.24" stroke-miterlimit="10"/>
<path d="M254.947 335.944C247.12 345.009 244.703 351.746 245.318 356.754C246.861 368.931 266.577 370.856 271.122 371.144" stroke="#CCDDE2" stroke-width="4.24" stroke-miterlimit="10"/>
<path d="M236.291 403.542V382.283C236.293 380.81 235.716 379.395 234.685 378.343C233.655 377.291 232.252 376.685 230.779 376.656L226.773 376.593C226.773 376.593 189.037 375.584 215.876 347.214C242.715 318.844 214.248 332.001 217.368 322.49C220.489 312.98 230.122 314.239 232.208 305.649C233.569 300.035 231.861 293.997 232.272 288.299C232.539 284.457 234.125 279.607 236.609 276.639C239.802 272.823 243.851 275.6 245.963 279.183C249.546 285.301 247.93 292.793 247.909 299.488C247.888 304.67 249.474 309.151 253.68 312.323C257.449 315.168 261.837 317.733 263.402 322.499C265.098 327.68 256.665 326.315 254.278 328.414C252.217 330.216 253.141 333.12 254.943 335.952" stroke="#CCDDE2" stroke-width="4.24" stroke-miterlimit="10"/>
<path d="M245.412 382.817C245.412 381.985 245.577 381.162 245.898 380.396C246.219 379.629 246.688 378.933 247.28 378.349C247.872 377.765 248.573 377.305 249.345 376.994C250.116 376.684 250.941 376.53 251.772 376.542L254.842 376.592C260.57 376.359 265.739 377.767 270.992 371.309L271.128 371.144" stroke="#CCDDE2" stroke-width="4.24" stroke-miterlimit="10"/>
<path d="M-2.8613 404.496C-5.60882 403.945 -8.3097 403.288 -10.9427 402.52C-21.7545 399.357 -34.3304 393.96 -38.6297 382.613C-39.7065 379.682 -40.0454 376.531 -39.6165 373.438C-39.1877 370.345 -38.0042 367.405 -36.1705 364.877C-34.2303 362.174 -31.4983 360.14 -28.352 359.056C-21.5086 356.847 -13.9362 360.294 -8.84818 365.386C-3.76018 370.478 -0.508101 377.046 3.44782 383.042C-0.147701 374.986 -3.7941 366.713 -4.29018 357.911C-4.68026 351.051 -2.81042 343.614 1.91718 338.458C6.27166 333.713 16.4523 329.978 22.4477 333.484C26.4036 335.787 27.9809 340.692 28.6593 345.2C30.5206 357.576 28.1293 370.152 25.7506 382.435C27.3491 375.867 29.0663 369.236 32.3226 363.313C35.579 357.39 40.5775 352.149 46.9714 349.957C51.4531 348.422 56.77 348.587 60.5394 351.479C64.0416 354.176 65.6066 358.729 66.0857 363.126C66.8956 370.491 65.1572 377.966 62.1765 384.75C51.0337 410.055 20.1789 409.096 -2.8613 404.496Z" stroke="#CCDDE2" stroke-width="4.24" stroke-miterlimit="10"/>
<path d="M22.2422 391.95C22.2422 391.95 39.393 396.715 45.4519 372.87" stroke="#CCDDE2" stroke-width="4.24" stroke-miterlimit="10"/>
<path d="M14.6123 351.259C9.8465 362.067 14.6123 394.507 14.6123 394.507" stroke="#CCDDE2" stroke-width="4.24" stroke-miterlimit="10"/>
<path d="M12.491 365.564C10.795 364.292 6.34727 365.564 5.70703 355.388" stroke="#CCDDE2" stroke-width="4.24" stroke-miterlimit="10"/>
<path d="M13.2324 375.1C13.2324 375.1 20.6524 372.425 20.6524 366.62" stroke="#CCDDE2" stroke-width="4.24" stroke-miterlimit="10"/>
<path d="M29.1816 392.085C29.1816 392.085 33.0528 382.096 34.6428 377.644" stroke="#CCDDE2" stroke-width="4.24" stroke-miterlimit="10"/>
<path d="M41.1836 382.541C41.1836 382.541 45.4236 385.912 50.5116 380.506" stroke="#CCDDE2" stroke-width="4.24" stroke-miterlimit="10"/>
<path d="M41.1828 377.644C41.1828 377.644 38.4396 376.457 39.7116 369.588" stroke="#CCDDE2" stroke-width="4.24" stroke-miterlimit="10"/>
<path d="M222.38 351.496C221.434 349.3 220.463 347.082 219.467 344.886C219.437 344.829 219.413 344.769 219.395 344.708C217.237 339.934 215.002 335.219 212.785 330.813C212.758 330.785 212.738 330.752 212.725 330.716C199.861 308.956 181.192 299.153 175.413 296.512C174.285 296.007 173.649 295.757 173.649 295.757C164.533 291.784 156.015 288.681 148.875 286.34C148.973 286.281 149.066 286.217 149.176 286.158C150.185 285.581 152.081 284.504 154.264 283.266L155.328 282.655C157.61 281.358 160.107 279.946 162.252 278.721C162.587 278.53 162.927 278.335 163.249 278.157C164.809 277.271 166.102 276.524 166.882 276.071C173.268 272.373 179.853 268.485 185.538 263.724C186.174 263.194 186.785 262.655 187.396 262.104C188.006 261.553 188.583 260.989 189.159 260.408C192.08 257.547 194.566 254.272 196.537 250.69C200.832 242.761 201.591 233.064 199.14 224.428C199.06 224.139 198.975 223.851 198.89 223.58C198.721 223.016 198.542 222.49 198.352 221.973C198.254 221.722 198.157 221.481 198.051 221.243C197.991 221.087 197.923 220.934 197.847 220.785C197.775 220.604 197.69 220.428 197.593 220.26C197.373 219.812 197.125 219.379 196.851 218.962C195.016 220.473 192.688 221.255 190.313 221.159C188.105 221.044 185.966 220.352 184.11 219.153C175.905 214.15 173.539 202.884 173.158 199.42C172.994 199.438 172.83 199.445 172.666 199.441C172.247 199.445 171.831 199.389 171.428 199.276L169.617 198.771L169.507 198.746C167.183 198.127 164.83 197.598 162.447 197.16C161.451 196.965 160.429 196.8 159.424 196.643C159.064 196.583 158.703 196.533 158.343 196.486C156.842 196.257 155.333 196.062 153.819 195.922C153.582 195.888 153.327 195.863 153.077 195.837C151.911 195.731 150.736 195.621 149.562 195.549C147.976 195.443 146.382 195.371 144.788 195.311C141.582 195.214 138.368 195.239 135.142 195.358C94.9508 196.859 54.2638 214.438 37.2274 222.846C37.0494 222.939 36.867 223.024 36.689 223.122C32.2878 225.305 29.5149 226.827 28.8407 227.213L28.6754 227.307C23.0145 230.218 17.684 233.731 12.7754 237.784C9.56907 240.425 6.73506 243.489 4.35048 246.891L4.2572 247.035C1.162 251.364 4.95256 256.851 10.3374 256.753C12.7372 256.707 15.4508 255.553 18.016 252.721C21.726 248.655 24.8 247.408 27.0387 247.285C27.6001 247.26 28.1594 247.369 28.6707 247.602C29.182 247.835 29.6306 248.186 29.9796 248.627C30.329 249.067 30.5681 249.584 30.6783 250.136C30.7882 250.686 30.7661 251.256 30.613 251.797L30.0279 253.887C29.8626 254.48 29.8295 255.103 29.9317 255.71C30.0334 256.317 30.2675 256.895 30.6177 257.402C30.9675 257.909 31.4246 258.333 31.9563 258.644C32.4884 258.954 33.082 259.144 33.6955 259.2C33.8198 259.206 33.9444 259.206 34.0686 259.2C34.9378 259.199 35.7858 258.928 36.4948 258.426C37.2041 257.923 37.7401 257.213 38.0288 256.393C39.2775 252.809 41.3419 249.565 44.0594 246.916C46.7768 244.267 50.0725 242.286 53.6871 241.129L58.1603 239.687C74.4708 234.444 91.6186 232.3 108.718 233.365C108.023 234.506 105.623 239.162 110.685 241.633C110.77 241.667 110.855 241.714 110.948 241.752L108.659 244.008L107.544 245.123L106.844 245.793C106.318 246.395 105.788 247.006 105.262 247.62C105.118 247.786 104.961 247.968 104.817 248.146C103.053 250.266 101.302 252.513 99.5894 254.9L99.335 254.722C99.335 254.722 96.791 259.314 82.7651 259.471C81.8077 259.605 80.9168 260.038 80.2211 260.709C79.7038 261.271 79.3735 261.979 79.2755 262.736C79.2365 263.017 79.2365 263.302 79.2755 263.584C79.2755 263.656 79.301 263.741 79.3095 263.821C79.3205 263.899 79.3374 263.975 79.3603 264.05C79.4477 264.4 79.5757 264.739 79.7419 265.059C79.898 265.354 80.0752 265.637 80.2719 265.907C83.5834 268.557 89.9434 270.512 89.9434 270.512C90.1978 270.008 90.4734 269.516 90.7363 269.024C90.4267 269.634 90.0791 270.376 89.6932 271.267C91.1094 271.712 92.729 272.14 94.5268 272.539C92.9919 272.2 91.3256 271.831 89.6551 271.347C89.6148 271.339 89.5749 271.327 89.5363 271.313C89.5295 271.316 89.5219 271.316 89.5151 271.313C86.5005 270.44 83.5282 269.193 81.3786 267.116C81.2785 267.037 81.1861 266.949 81.103 266.853L81.0309 266.781C80.7417 266.494 80.4725 266.188 80.2253 265.865C79.3052 265.098 78.6311 264.296 78.453 263.457C78.3427 266.081 79.1695 271.771 87.2467 275.838C85.7585 278.895 84.3423 282.1 82.9728 285.471C58.7285 345.098 -5.14712 300.79 -5.14712 300.79L-13.2328 294.731L-17.0742 299.857L-13.7628 295.583L-3.91328 301.621L-17.3965 319.136C-9.54824 326.344 59.8309 386.909 114.217 324.954C114.277 324.894 118.457 319.832 118.487 319.772C119.17 320.023 119.891 320.277 120.607 320.527C175.481 339.438 175.892 333.247 196.753 366.502C206.162 381.486 211.415 389.766 214.332 394.337L239.819 394.566C238.038 389.889 229.774 368.571 222.38 351.496ZM113.111 276.694C114.667 277.042 116.18 277.402 117.728 277.771C116.18 277.402 114.667 277.054 113.111 276.694ZM120.319 234.68L119.852 234.582L119.428 234.498L118.936 234.4L118.635 234.341C121.527 234.727 124.406 235.189 127.264 235.795C127.299 235.789 127.335 235.789 127.37 235.795C129.566 236.216 131.75 236.708 133.921 237.271L134.124 237.321C134.018 237.381 133.921 237.44 133.815 237.487C133.068 237.334 132.267 237.165 131.436 236.982H131.415C127.4 236.168 122.778 235.206 120.306 234.68H120.319ZM139.127 283.338C138.279 283.101 137.431 282.884 136.655 282.668C134.171 281.994 131.991 281.396 129.999 280.879C131.063 281.133 132.708 281.54 134.82 282.117C136.223 282.486 137.83 282.965 139.632 283.461C139.691 283.482 139.751 283.495 139.81 283.52C139.954 283.554 140.111 283.605 140.255 283.652C139.874 283.542 139.492 283.448 139.127 283.338Z" fill="white"/>
<path d="M214.75 394.32L249.225 394.642C250.921 394.642 259.741 400.014 257.438 403.512C255.505 406.442 257.438 407.023 257.438 407.023H223.34L214.75 394.32Z" fill="#4299E1"/>
<path d="M109.057 244.029L107.942 245.144L107.018 246.043C107.293 245.733 107.56 245.42 107.836 245.123C108.112 244.826 108.29 244.605 108.519 244.351C108.674 244.207 108.857 244.098 109.057 244.029Z" fill="#353642"/>
<path d="M281.384 211.012C281.266 210.881 281.164 210.762 281.049 210.643C278.298 207.616 279.438 203.914 282.037 201.078C284.043 198.877 287.371 196.621 290.483 196.63C293.523 196.63 296.873 199.267 298.692 201.519C301.804 205.369 303.059 210.274 299.905 214.472C296.349 219.177 292.287 223.477 287.791 227.294C277.7 235.981 264.645 243.554 251.954 248.659C237.92 254.302 221.384 255.384 206.328 253.357C203.495 252.975 199.658 251.614 196.953 250.698" stroke="black" stroke-width="4.24" stroke-miterlimit="10"/>
<path d="M284.9 213.793L284.914 213.812" stroke="black" stroke-width="4.24" stroke-miterlimit="10"/>
<path d="M293.379 214.637C291.708 216.571 287.918 218.521 285.861 215.909C284.564 214.26 285.607 212.144 286.659 210.673C288.488 208.036 291.251 206.193 294.388 205.517" stroke="black" stroke-width="4.24" stroke-miterlimit="10"/>
<path d="M287.79 202.833C284.966 203.906 281.616 206.577 281.328 209.846C281.103 212.411 283.732 214.29 285.763 212.309" stroke="black" stroke-width="4.24" stroke-miterlimit="10"/>
<path d="M209.389 197.402C209.791 200.412 212.357 202.384 215.011 201.947" stroke="black" stroke-width="4.24" stroke-miterlimit="10"/>
<path d="M196.954 250.698C190.666 262.337 178.671 269.499 167.333 276.075C164.441 277.741 153.341 284.029 149.288 286.344C147.057 285.589 144.954 284.903 143.025 284.279C142.966 284.279 142.915 284.245 142.856 284.233C134.664 281.642 129.334 280.311 128.567 280.116L137.047 282.66C116.852 277.224 115.342 277.105 94.9224 272.547C93.061 272.123 91.4074 271.699 89.9531 271.229C90.339 270.482 90.7333 269.74 91.1318 269.019C91.153 268.973 91.1785 268.935 91.1912 268.901C91.2506 268.791 91.3226 268.672 91.3693 268.562C91.4922 268.345 91.611 268.138 91.717 267.926L91.9714 267.502C92.0053 267.438 92.0434 267.379 92.0774 267.319C92.1113 267.26 92.1028 267.285 92.1282 267.234C92.7134 266.179 93.3155 265.148 93.926 264.139C95.8807 260.853 97.9074 257.779 99.9722 254.913C102.267 251.736 104.599 248.789 106.968 246.073L107.002 246.034L107.926 245.136L109.042 244.02L118.891 234.315C118.891 234.315 128.177 236.236 134.176 237.508C136.178 236.539 138.089 235.394 139.888 234.086C147.185 228.744 154.028 217.512 152.79 208.12C151.7 199.903 142.94 195.774 135.406 195.345C147.151 194.9 158.849 195.824 169.898 198.737C169.935 198.739 169.97 198.748 170.004 198.763L171.819 199.267C172.38 199.422 172.966 199.472 173.545 199.411C173.931 202.88 176.292 214.145 184.501 219.144C189.97 222.469 194.541 221.175 197.251 218.954C198.298 220.646 199.072 222.494 199.544 224.427C202.004 233.064 201.249 242.757 196.954 250.698Z" fill="#353642"/>
<path d="M37.6306 222.833L37.0879 223.109" stroke="black" stroke-width="4.24" stroke-miterlimit="10"/>
<path d="M29.24 227.205L29.0781 227.294" stroke="black" stroke-width="4.24" stroke-miterlimit="10"/>
<path d="M118.904 319.773L114.63 324.958C56.9154 390.712 -17.7129 318.467 -17.7129 318.467L-14.3209 313.866" stroke="black" stroke-width="4.24" stroke-miterlimit="10"/>
<path d="M128.973 280.544C128.973 280.544 149.376 284.992 174.082 295.761C174.082 295.761 174.714 296.003 175.842 296.516" stroke="black" stroke-width="4.24" stroke-miterlimit="10"/>
<path d="M213.133 330.72C213.133 330.75 213.162 330.767 213.175 330.797C215.401 335.202 217.644 339.925 219.794 344.712C219.824 344.772 219.841 344.831 219.87 344.89C220.862 347.087 221.842 349.3 222.787 351.496C231.136 370.792 240.595 395.503 240.595 395.503" stroke="black" stroke-width="4.24" stroke-miterlimit="10"/>
<path d="M213.192 330.809C213.166 330.784 213.146 330.753 213.132 330.72C200.268 308.956 181.604 299.149 175.842 296.516C174.714 296.003 174.082 295.761 174.082 295.761" stroke="black" stroke-width="4.24" stroke-miterlimit="10"/>
<path d="M92.1483 267.243C92.1483 267.243 69.4049 302.736 121.027 320.544C175.901 339.455 176.308 333.264 197.173 366.514C210.152 387.184 215.223 395.109 217.177 398.119L218.411 399.985L223.338 407.04H257.423V403.529C257.423 401.402 256.578 399.362 255.074 397.857C253.569 396.352 251.529 395.507 249.401 395.507H235.685" stroke="black" stroke-width="4.24" stroke-miterlimit="10"/>
<path d="M196.793 218.241C203.577 223.584 213.541 225.106 219.812 226.026C220.749 226.161 221.699 226.246 222.644 226.344C231.352 227.233 240.147 226.659 248.665 224.648C254.879 223.188 260.875 220.919 266.499 217.898C271.417 215.235 273.626 210.533 274.979 205.11L277.523 193.823C277.91 192.943 278.587 192.222 279.442 191.78C280.296 191.338 281.276 191.203 282.218 191.396C283.16 191.59 284.008 192.1 284.619 192.843C285.231 193.585 285.57 194.515 285.579 195.477C285.575 195.964 285.487 196.448 285.32 196.905L284.781 198.394" stroke="black" stroke-width="4.24" stroke-linejoin="round"/>
<path d="M29.2392 227.205C23.5203 230.146 18.1334 233.691 13.1696 237.779C9.95908 240.419 7.12592 243.486 4.74898 246.895L4.64721 247.039C0.182494 253.298 10.0532 261.939 18.4272 252.729C22.1287 248.651 25.19 247.408 27.4457 247.289C28.0058 247.267 28.5638 247.376 29.0734 247.61C29.5831 247.844 30.03 248.196 30.3777 248.637C30.7253 249.077 30.9636 249.593 31.073 250.143C31.1824 250.693 31.1599 251.261 31.0073 251.801L30.4222 253.891C30.2568 254.484 30.2237 255.106 30.3255 255.713C30.4268 256.32 30.6609 256.897 31.0103 257.404C31.3601 257.91 31.8167 258.333 32.348 258.644C32.8793 258.954 33.4724 259.144 34.0855 259.2C35.0175 259.284 35.9511 259.055 36.7377 258.548C37.5246 258.04 38.119 257.285 38.4273 256.401C39.6751 252.819 41.7387 249.575 44.4544 246.926C47.1702 244.277 50.4647 242.296 54.0771 241.137L58.5673 239.704C87.1385 230.534 117.923 230.94 146.242 240.862L157.007 244.648" stroke="black" stroke-width="4.24" stroke-miterlimit="10"/>
<path d="M10.7411 256.749C10.7411 256.749 -0.223492 253.73 17.7626 241.883" stroke="black" stroke-width="4.24" stroke-miterlimit="10"/>
<path d="M149.6 286.157C152.729 284.368 164.228 277.877 167.327 276.075C178.669 269.498 190.672 262.337 196.96 250.698C201.247 242.761 202.006 233.064 199.555 224.41C198.89 222.057 198.22 220.217 196.787 218.224" stroke="black" stroke-width="4.24" stroke-linejoin="round"/>
<path d="M237.321 171.169C236.873 173.215 235.794 175.07 234.236 176.471C232.679 177.872 230.721 178.749 228.638 178.979C228.448 178.141 228.056 177.362 227.497 176.71C225.123 174.009 224.224 179.182 216.698 175.629C206.272 170.698 202.409 173.721 202.409 173.721C202.074 173.988 202.159 176.363 202.121 176.782C201.896 179.242 201.667 181.688 201.426 184.147C201.281 185.648 201.137 187.136 201.002 188.625C200.857 188.375 200.697 188.134 200.523 187.904C199.513 184.592 196.707 180.717 193.107 182.481C192.38 182.853 191.753 183.392 191.275 184.054C188.935 187.255 190.817 190.266 193.395 192.475C194.034 193.16 194.745 193.776 195.515 194.311C195.121 195.159 193.501 198.606 193.501 198.618C193.331 198.966 187.298 192.403 186.844 191.682C186.148 189.912 185.756 188.037 185.687 186.136C185.432 178.326 188.434 169.176 194.671 164.563C196.219 163.426 196.762 162.345 196.834 160.831C196.847 160.755 196.882 160.684 196.933 160.626C196.984 160.569 197.05 160.525 197.124 160.502C197.198 160.479 197.276 160.477 197.351 160.495C197.426 160.513 197.495 160.552 197.55 160.607C199.581 162.85 204.487 162.523 204.487 162.523C221.447 157.919 227.319 165.381 230.775 166.653C232.185 167.159 233.727 167.159 235.138 166.653C235.23 167.122 235.45 167.557 235.772 167.911C236.094 168.264 236.507 168.523 236.965 168.659L236.893 169.447C236.832 170.053 236.984 170.662 237.321 171.169Z" fill="#4299E1"/>
<path d="M228.625 178.992C230.707 178.762 232.666 177.885 234.224 176.484C235.781 175.083 236.861 173.229 237.308 171.182C237.487 170.398 237.592 169.598 237.622 168.795H237.491C237.307 168.784 237.126 168.749 236.952 168.689C236.494 168.554 236.081 168.295 235.76 167.941C235.438 167.588 235.22 167.152 235.129 166.683C235.069 166.423 235.052 166.156 235.078 165.89L235.438 162.027C235.438 162.027 232.403 164.381 228.96 163.109C225.517 161.837 219.632 154.374 202.672 158.979C202.672 158.979 197.766 159.305 195.739 157.062C195.685 157.007 195.616 156.967 195.54 156.948C195.465 156.929 195.385 156.931 195.31 156.954C195.236 156.978 195.169 157.021 195.118 157.08C195.066 157.138 195.032 157.21 195.019 157.287C194.946 158.801 194.408 159.882 192.86 161.018C186.615 165.602 183.647 174.756 183.884 182.566C184.045 185.819 185.07 188.97 186.852 191.695C187.306 192.416 193.339 198.979 193.509 198.631C193.509 198.631 195.129 195.188 195.523 194.324L195.621 194.133L195.43 194.01C194.719 193.552 194.041 193.046 193.399 192.496C190.855 190.287 188.96 187.277 191.279 184.075C191.757 183.414 192.385 182.875 193.111 182.502C196.71 180.739 199.517 184.622 200.526 187.925C200.72 188.558 200.845 189.208 200.899 189.867C200.933 189.443 200.971 189.066 201.005 188.659C201.137 187.171 201.281 185.691 201.429 184.181C201.671 181.722 201.9 179.276 202.125 176.817C202.163 176.393 202.078 174.022 202.413 173.755C202.413 173.755 206.276 170.732 216.702 175.663C224.228 179.216 225.127 174.044 227.501 176.745C228.06 177.397 228.452 178.175 228.642 179.013C228.701 179.281 228.741 179.553 228.76 179.827C228.767 179.863 228.767 179.901 228.76 179.937C228.807 180.535 228.833 181.137 228.858 181.722C229.023 187.4 228.519 193.336 226.399 198.653C223.817 205.093 216.774 211.538 209.265 208.706C206.924 207.819 204.8 206.352 202.858 204.796" stroke="black" stroke-width="4.24" stroke-miterlimit="10"/>
<path d="M187.71 192.746L175.075 199.009C174.055 199.471 172.905 199.559 171.827 199.259L170.025 198.763C169.988 198.749 169.949 198.739 169.91 198.733C121.049 185.843 59.6238 211.958 37.6224 222.833L37.0797 223.109C32.6743 225.301 29.9098 226.823 29.2314 227.205L29.0703 227.294" stroke="black" stroke-width="4.24" stroke-miterlimit="10"/>
<path d="M173.508 199.704C173.342 200.243 174.877 213.751 183.887 219.242C189.696 222.778 194.419 220.777 196.794 218.233C197.05 217.956 197.291 217.664 197.514 217.359V217.33" stroke="black" stroke-width="4.24" stroke-miterlimit="10"/>
<path d="M196.787 218.241L206.641 206.454" stroke="black" stroke-width="4.24" stroke-miterlimit="10"/>
<path d="M143.024 284.279C142.964 284.279 142.914 284.245 142.854 284.232L137.062 282.672C116.867 277.237 115.358 277.118 94.9379 272.56C93.0766 272.136 91.423 271.712 89.9687 271.241C74.7471 266.403 80.3142 259.488 82.3748 259.488C97.0749 259.488 99.7588 254.727 99.7588 254.727L100.009 254.905L143.024 284.279Z" fill="#353642"/>
<path d="M211.767 190.066C212.629 190.066 213.328 189.368 213.328 188.506C213.328 187.645 212.629 186.946 211.767 186.946C210.905 186.946 210.207 187.645 210.207 188.506C210.207 189.368 210.905 190.066 211.767 190.066Z" fill="black"/>
<path d="M223.75 190.066C224.612 190.066 225.31 189.368 225.31 188.506C225.31 187.645 224.612 186.946 223.75 186.946C222.888 186.946 222.189 187.645 222.189 188.506C222.189 189.368 222.888 190.066 223.75 190.066Z" fill="black"/>
<path d="M219.137 187.857C219.137 187.857 220.345 193.213 220.485 193.751C220.943 195.506 217.471 194.951 217.471 194.951" stroke="black" stroke-width="4.24" stroke-miterlimit="10"/>
<path d="M217.092 181.048C217.092 181.048 211.962 177.809 208.006 181.341" stroke="black" stroke-width="4.24" stroke-miterlimit="10"/>
<path d="M212.2 193.488C215.269 193.488 217.758 191 217.758 187.93C217.758 184.86 215.269 182.371 212.2 182.371C209.13 182.371 206.641 184.86 206.641 187.93C206.641 191 209.13 193.488 212.2 193.488Z" stroke="black" stroke-width="4.24" stroke-miterlimit="10"/>
<path d="M226.26 193.022C229.33 193.022 231.818 190.533 231.818 187.463C231.818 184.393 229.33 181.904 226.26 181.904C223.19 181.904 220.701 184.393 220.701 187.463C220.701 190.533 223.19 193.022 226.26 193.022Z" stroke="black" stroke-width="4.24" stroke-miterlimit="10"/>
<path d="M226.264 183.69C227.265 183.673 228.231 184.055 228.95 184.751C229.669 185.448 230.083 186.401 230.099 187.402C230.115 188.402 229.733 189.369 229.037 190.088C228.341 190.807 227.388 191.22 226.387 191.237H226.259C225.277 191.224 224.338 190.829 223.642 190.135C222.946 189.441 222.547 188.503 222.531 187.521C222.515 186.538 222.883 185.588 223.556 184.872C224.229 184.156 225.155 183.73 226.136 183.685H226.264V183.69ZM226.264 182.787H226.107C225.493 182.796 224.887 182.927 224.324 183.172C223.761 183.416 223.251 183.769 222.824 184.21C222.397 184.651 222.061 185.172 221.835 185.743C221.61 186.313 221.499 186.924 221.508 187.538C221.519 188.151 221.65 188.757 221.894 189.32C222.138 189.884 222.49 190.394 222.932 190.821C223.373 191.248 223.894 191.583 224.465 191.809C225.036 192.034 225.646 192.146 226.259 192.136H226.416C227.653 192.115 228.832 191.605 229.692 190.716C230.552 189.827 231.024 188.632 231.004 187.396C230.984 186.158 230.473 184.98 229.584 184.12C228.695 183.259 227.501 182.787 226.264 182.808V182.787Z" fill="white"/>
<path d="M217.756 187.747L220.707 187.65" stroke="black" stroke-width="4.24" stroke-miterlimit="10"/>
<path opacity="0.53" d="M212.199 192.636C214.798 192.636 216.905 190.529 216.905 187.93C216.905 185.33 214.798 183.223 212.199 183.223C209.599 183.223 207.492 185.33 207.492 187.93C207.492 190.529 209.599 192.636 212.199 192.636Z" fill="white"/>
<path opacity="0.53" d="M226.259 192.17C228.859 192.17 230.966 190.063 230.966 187.463C230.966 184.864 228.859 182.757 226.259 182.757C223.66 182.757 221.553 184.864 221.553 187.463C221.553 190.063 223.66 192.17 226.259 192.17Z" fill="white"/>
<path d="M-4.73633 300.803C-4.73633 300.803 59.135 345.106 83.3836 285.479C85.4502 280.391 87.638 275.657 89.9471 271.275" stroke="black" stroke-width="4.24" stroke-miterlimit="10"/>
<path d="M134.554 237.347L118.908 234.324C118.552 234.256 116.954 236.02 116.644 236.287C111.916 240.586 107.521 245.24 103.5 250.207C100.744 253.548 98.0136 256.401 93.799 257.839C91.7927 258.488 89.721 258.915 87.6213 259.111C85.4674 259.344 82.2577 258.984 80.6253 260.713C80.2662 261.102 79.9961 261.563 79.8329 262.066C79.6696 262.569 79.6175 263.101 79.6798 263.626C79.8388 264.57 80.2569 265.451 80.8882 266.17C84.1318 270.152 90.1738 271.492 94.9269 272.552C117.195 277.525 116.975 277.216 143.013 284.279" stroke="black" stroke-width="4.24" stroke-miterlimit="10"/>
<path d="M107.942 245.144L107.018 246.043C107.293 245.734 107.56 245.42 107.836 245.123L107.942 245.144Z" fill="#353642"/>
<path d="M134.103 237.631C134.103 237.631 125.034 244.733 114.493 242.719C103.953 240.705 109.295 233.115 109.295 233.115C116.983 233.363 124.598 234.684 131.92 237.041" fill="black"/>
<path d="M79.044 261.994C79.044 261.994 76.801 270.372 87.6597 275.837L90.369 270.512C90.369 270.512 76.8477 266.357 79.044 261.994Z" fill="black"/>
<path d="M157.717 167.976H128.143" stroke="black" stroke-width="4.24" stroke-miterlimit="10"/>
<path d="M130.331 175.176H113.625" stroke="black" stroke-width="4.24" stroke-miterlimit="10"/>
<path d="M-6.94531 343.139C-6.94531 343.139 13.9918 366.535 58.9613 366.535" stroke="black" stroke-width="4.24" stroke-miterlimit="10"/>
<path d="M186.572 363.114L196.952 379.132" stroke="black" stroke-width="4.24" stroke-miterlimit="10"/>
<path d="M24.1634 218.241C12.9147 222.672 2.2977 229.291 -3.49414 240.268" stroke="black" stroke-width="4.24" stroke-miterlimit="10"/>
<path d="M303.395 221.328C307.27 217.461 310.497 212.602 310.946 206.297" stroke="black" stroke-width="4.24" stroke-miterlimit="10"/>
</svg>
