<svg width="78" height="23" viewBox="0 0 78 23" fill="none" xmlns="http://www.w3.org/2000/svg">
<path d="M40.6101 0.357422L33.9875 6.62201H21.9953C21.7268 6.83083 21.1898 7.12318 21.1898 7.69594C21.1898 8.26871 21.7268 8.47156 21.9953 8.50139H24.5011C27.5737 8.91903 33.719 11.0072 33.719 16.0189C33.719 21.0306 27.5737 22.7608 24.5011 22.9994H0.785156L6.60228 17.1823H24.5011C24.8889 17.1525 25.6645 16.878 25.6645 16.0189C25.6645 15.1598 24.8889 14.766 24.5011 14.6765H19.5789C17.5802 14.408 13.5828 12.636 13.5828 7.69594C13.5828 2.75587 17.5802 0.74523 19.5789 0.357422H40.6101Z" fill="#63A8E7"/>
<path d="M42.7579 0.357422L35.8669 6.53252V22.8205H42.7579V0.357422Z" fill="#63A8E7"/>
<path d="M62.0886 21.7471V15.8405H56.54C55.1976 15.751 52.5128 14.4444 52.5128 11.0078C52.5128 7.57121 55.1976 6.23476 56.54 5.99611H70.9486L77.2131 0H74.1703H54.4816C51.1405 0.477302 44.4583 3.34708 44.4583 11.0078C44.4583 18.6685 51.1405 21.3593 54.4816 21.7471H62.0886Z" fill="#63A8E7"/>
</svg>
